<mxfile host="app.diagrams.net" modified="2024-03-06T11:26:40.632Z" agent="Mozilla/5.0 (Windows NT 10.0; Win64; x64) AppleWebKit/537.36 (KHTML, like Gecko) Chrome/122.0.0.0 Safari/537.36" etag="56T4FColq0BM2KX2N-xk" version="24.0.2" type="device">
  <diagram name="Page-1" id="Cd1GiLt1ftCZEi4qGlDe">
    <mxGraphModel dx="773" dy="715" grid="1" gridSize="10" guides="1" tooltips="1" connect="1" arrows="1" fold="1" page="1" pageScale="1" pageWidth="850" pageHeight="1100" math="0" shadow="0">
      <root>
        <mxCell id="0" />
        <mxCell id="1" parent="0" />
        <mxCell id="cZMfbe8EJ5zR72bOgjES-1" value="New User" style="shape=umlActor;verticalLabelPosition=bottom;verticalAlign=top;html=1;outlineConnect=0;" parent="1" vertex="1">
          <mxGeometry x="70" y="140" width="80" height="130" as="geometry" />
        </mxCell>
        <mxCell id="cZMfbe8EJ5zR72bOgjES-2" value="Add Sources" style="ellipse;whiteSpace=wrap;html=1;" parent="1" vertex="1">
          <mxGeometry x="300" y="270" width="120" height="80" as="geometry" />
        </mxCell>
        <mxCell id="cZMfbe8EJ5zR72bOgjES-3" value="Create Account" style="ellipse;whiteSpace=wrap;html=1;" parent="1" vertex="1">
          <mxGeometry x="300" y="80" width="120" height="80" as="geometry" />
        </mxCell>
        <mxCell id="cZMfbe8EJ5zR72bOgjES-4" value="Add Notes to existing sources" style="ellipse;whiteSpace=wrap;html=1;" parent="1" vertex="1">
          <mxGeometry x="300" y="360" width="120" height="80" as="geometry" />
        </mxCell>
        <mxCell id="cZMfbe8EJ5zR72bOgjES-5" value="Add Tags to existing sources" style="ellipse;whiteSpace=wrap;html=1;" parent="1" vertex="1">
          <mxGeometry x="300" y="450" width="120" height="80" as="geometry" />
        </mxCell>
        <mxCell id="U7lj53Rsx8cFv55cplYz-1" value="View Sources" style="ellipse;whiteSpace=wrap;html=1;" parent="1" vertex="1">
          <mxGeometry x="300" y="180" width="120" height="80" as="geometry" />
        </mxCell>
        <mxCell id="bnitQfUHwvqFoG2lwfhZ-1" value="Share source with user" style="ellipse;whiteSpace=wrap;html=1;" parent="1" vertex="1">
          <mxGeometry x="300" y="650" width="120" height="80" as="geometry" />
        </mxCell>
        <mxCell id="bnitQfUHwvqFoG2lwfhZ-2" value="User" style="shape=umlActor;verticalLabelPosition=bottom;verticalAlign=top;html=1;outlineConnect=0;" parent="1" vertex="1">
          <mxGeometry x="70" y="380" width="80" height="130" as="geometry" />
        </mxCell>
        <mxCell id="bnitQfUHwvqFoG2lwfhZ-5" value="Other User" style="shape=umlActor;verticalLabelPosition=bottom;verticalAlign=top;html=1;outlineConnect=0;" parent="1" vertex="1">
          <mxGeometry x="550" y="420" width="80" height="130" as="geometry" />
        </mxCell>
        <mxCell id="bnitQfUHwvqFoG2lwfhZ-6" value="" style="endArrow=classic;html=1;rounded=0;entryX=-0.025;entryY=0.4;entryDx=0;entryDy=0;entryPerimeter=0;" parent="1" source="bnitQfUHwvqFoG2lwfhZ-2" target="bnitQfUHwvqFoG2lwfhZ-1" edge="1">
          <mxGeometry width="50" height="50" relative="1" as="geometry">
            <mxPoint x="170" y="560" as="sourcePoint" />
            <mxPoint x="220" y="510" as="targetPoint" />
          </mxGeometry>
        </mxCell>
        <mxCell id="bnitQfUHwvqFoG2lwfhZ-7" value="" style="endArrow=classic;html=1;rounded=0;entryX=1;entryY=0.5;entryDx=0;entryDy=0;" parent="1" source="bnitQfUHwvqFoG2lwfhZ-5" target="bnitQfUHwvqFoG2lwfhZ-1" edge="1">
          <mxGeometry width="50" height="50" relative="1" as="geometry">
            <mxPoint x="440" y="540" as="sourcePoint" />
            <mxPoint x="490" y="490" as="targetPoint" />
          </mxGeometry>
        </mxCell>
        <mxCell id="bnitQfUHwvqFoG2lwfhZ-8" value="View shared source" style="text;html=1;strokeColor=none;fillColor=none;align=center;verticalAlign=middle;whiteSpace=wrap;rounded=0;" parent="1" vertex="1">
          <mxGeometry x="490" y="600" width="60" height="30" as="geometry" />
        </mxCell>
        <mxCell id="bnitQfUHwvqFoG2lwfhZ-9" value="Sends source" style="text;html=1;strokeColor=none;fillColor=none;align=center;verticalAlign=middle;whiteSpace=wrap;rounded=0;" parent="1" vertex="1">
          <mxGeometry x="160" y="580" width="60" height="30" as="geometry" />
        </mxCell>
        <mxCell id="bnitQfUHwvqFoG2lwfhZ-10" value="" style="endArrow=classic;html=1;rounded=0;" parent="1" source="bnitQfUHwvqFoG2lwfhZ-2" edge="1">
          <mxGeometry width="50" height="50" relative="1" as="geometry">
            <mxPoint x="190" y="460" as="sourcePoint" />
            <mxPoint x="290" y="490" as="targetPoint" />
          </mxGeometry>
        </mxCell>
        <mxCell id="bnitQfUHwvqFoG2lwfhZ-11" value="" style="endArrow=classic;html=1;rounded=0;entryX=0;entryY=0.5;entryDx=0;entryDy=0;" parent="1" target="cZMfbe8EJ5zR72bOgjES-3" edge="1">
          <mxGeometry width="50" height="50" relative="1" as="geometry">
            <mxPoint x="160" y="220" as="sourcePoint" />
            <mxPoint x="230" y="130" as="targetPoint" />
          </mxGeometry>
        </mxCell>
        <mxCell id="bnitQfUHwvqFoG2lwfhZ-12" value="" style="endArrow=classic;html=1;rounded=0;exitX=0.75;exitY=0.1;exitDx=0;exitDy=0;exitPerimeter=0;entryX=0;entryY=0.75;entryDx=0;entryDy=0;entryPerimeter=0;" parent="1" source="bnitQfUHwvqFoG2lwfhZ-2" target="U7lj53Rsx8cFv55cplYz-1" edge="1">
          <mxGeometry width="50" height="50" relative="1" as="geometry">
            <mxPoint x="160" y="380" as="sourcePoint" />
            <mxPoint x="280" y="230" as="targetPoint" />
          </mxGeometry>
        </mxCell>
        <mxCell id="bnitQfUHwvqFoG2lwfhZ-13" value="" style="endArrow=classic;html=1;rounded=0;exitX=0.75;exitY=0.1;exitDx=0;exitDy=0;exitPerimeter=0;" parent="1" source="bnitQfUHwvqFoG2lwfhZ-2" edge="1">
          <mxGeometry width="50" height="50" relative="1" as="geometry">
            <mxPoint x="200" y="430" as="sourcePoint" />
            <mxPoint x="290" y="310" as="targetPoint" />
          </mxGeometry>
        </mxCell>
        <mxCell id="bnitQfUHwvqFoG2lwfhZ-14" value="" style="endArrow=classic;html=1;rounded=0;" parent="1" source="bnitQfUHwvqFoG2lwfhZ-2" edge="1">
          <mxGeometry width="50" height="50" relative="1" as="geometry">
            <mxPoint x="210" y="440" as="sourcePoint" />
            <mxPoint x="290" y="400" as="targetPoint" />
          </mxGeometry>
        </mxCell>
        <mxCell id="45hKa5r7L4ZXtsq2tKuu-1" value="Remove Sources and Notes" style="ellipse;whiteSpace=wrap;html=1;" vertex="1" parent="1">
          <mxGeometry x="305" y="540" width="120" height="80" as="geometry" />
        </mxCell>
        <mxCell id="45hKa5r7L4ZXtsq2tKuu-2" value="" style="endArrow=classic;html=1;rounded=0;" edge="1" parent="1">
          <mxGeometry width="50" height="50" relative="1" as="geometry">
            <mxPoint x="140" y="472.5" as="sourcePoint" />
            <mxPoint x="300" y="570" as="targetPoint" />
          </mxGeometry>
        </mxCell>
      </root>
    </mxGraphModel>
  </diagram>
</mxfile>
